<svg xmlns="http://www.w3.org/2000/svg" width="74" height="105" fill="none" viewBox="0 0 74 105"><path fill="#151618" d="M46.08 1.29c-.69.73-2.326 2.278-3.631 3.467-4.351 3.926-5.237 5.33-5.357 8.54-.09 2.608.54 4.585 2.176 6.834.435.602.795 1.06.795 1.003 0-.043-.27-.601-.6-1.232-1.26-2.407-1.636-5.33-.945-7.408.645-1.948 1.59-3.123 4.786-5.946a25 25 0 0 0 1.845-1.79l.645-.717-.09 3.009c-.045 1.991-.15 3.367-.315 4.083-.555 2.422-1.635 4.342-3.6 6.448-1.426 1.533-1.831 2.407-1.441 3.124.06.129.165.673.225 1.189l.09.946-.855.544c-2.896 1.834-4.936 4.485-5.761 7.494-.225.802-.315 1.576-.315 2.822-.015 2.651.495 4.858 1.785 7.637l.675 1.462-.24 1.146c-.24 1.16-.315 4.614-.105 5.517.075.358.165.43.54.43h.45l.105-1.849c.39-6.591 2.67-10.417 8.027-13.469 4.126-2.35 5.341-3.668 8.087-8.769 2.16-4.055 2.85-5.13 4.516-7.178l.945-1.16-1.335.544c-2.16.888-5.267 1.777-9.017 2.579-3.601.76-5.236 1.204-6.482 1.805-.39.187-.75.344-.795.344s-.06-.573-.015-1.29c.075-1.533.09-1.561 2.416-3.882 1.26-1.247 1.785-1.906 2.22-2.723.96-1.82 1.035-2.35.93-5.86-.105-3.296.075-5.445.675-7.838.15-.616.27-1.132.256-1.146s-.6.573-1.29 1.29m6.916 22.467c-3.016 5.301-5.116 7.55-9.932 10.66-.946.616-2.056 1.39-2.46 1.705-1.486 1.175-3.182 3.496-3.827 5.23-.15.415-.315.702-.36.63-.24-.358-.885-3.281-1.035-4.642-.495-4.514 1.26-8.468 4.951-11.119 2.116-1.533 4.036-2.235 7.907-2.909 1.65-.286 4.276-1.017 5.4-1.49.256-.1.466-.172.496-.157.015.014-.495.96-1.14 2.092M19.681 4.868c.895 3.229 1.163 7.461.73 11.422-.536 4.935-.089 6.428 3.103 10.488.865 1.09 1.834 2.511 2.177 3.142.97 1.88 1.491 4.549 1.506 7.763v1.334l-.358-.143c-.835-.302-2.341-.43-6.129-.503-2.207-.043-4.489-.143-5.07-.2-.567-.072-1.06-.1-1.074-.087-.03.015.268.244.671.517 1.685 1.162 3.385 2.669 5.354 4.75 1.163 1.219 2.55 2.568 3.102 2.984 2.356 1.793 5.055 2.84 8.32 3.214 1.343.157.806-.33-1.46-1.277-3.61-1.521-5.414-2.755-8.188-5.582-1.044-1.062-2.311-2.195-2.803-2.525l-.895-.574h1.76c4.623 0 7.232.86 9.454 3.114a8.95 8.95 0 0 1 2.297 3.96c.12.473.254.89.298.932.15.13.105-1.693-.06-2.697-.342-2.08-2.072-4.376-4.056-5.38l-.865-.431V36.72c0-4.706-.432-6.327-2.699-10-2.997-4.879-3.49-6.801-3.4-13.56.03-2.094.075-3.816.09-3.802 0 .015.313.417.67.89.373.473 1.7 1.894 2.968 3.157 3.072 3.056 4.25 4.82 4.981 7.475.82 2.913.15 6.988-1.79 10.919-.357.732-.626 1.334-.61 1.334.029 0 .283-.344.58-.775 2.342-3.386 3.52-7.202 3.341-10.775-.104-1.951-.507-3.472-1.357-5.165-.865-1.75-1.864-2.985-4.757-5.869a122 122 0 0 1-5.428-5.753l-.627-.718z"/><path fill="#151618" d="M46.573 40.036c-3.426.699-5.754 3.608-5.77 7.174 0 .713-.03.77-.465.913-.782.257-.21.385 2.208.485 3.456.143 5.574-.242 7.377-1.355.496-.3 1.743-1.255 2.78-2.125 2.103-1.74 3.185-2.482 4.957-3.38l1.187-.6-1.442-.1c-.781-.042-2.178-.228-3.11-.385-.931-.156-2.404-.413-3.275-.556-1.833-.314-3.155-.342-4.447-.071m4.958 1.783c.736.17 1.878.356 2.509.4l1.171.099-1.637 1.255c-2.494 1.911-4.147 2.781-6.265 3.295-1.082.27-5.92.97-6.025.87-.135-.128.3-1.455.827-2.496.916-1.811 2.644-3.11 4.822-3.637 1.112-.271 2.855-.186 4.598.214M13.057 55.64c-.181 7.75.24 10.37 2.27 14.274 1.068 2.045 2.798 4.436 4.031 5.56.301.273.542.532.542.576 0 .057-3.745.072-8.302.043-4.573-.029-8.468 0-8.664.043-.18.043-.42.245-.511.432-.136.303-.12.404.105.648.27.288.436.288 33.947.288 22.936 0 33.765-.043 33.976-.144.391-.201.391-.95 0-1.152-.195-.086-3.294-.144-9.04-.144h-8.738l.918-1.051c2.617-2.953 4.316-6.194 5.43-10.327.315-1.138.345-1.628.39-7.39l.075-6.15H13.163zM6.814 79.455c5.082 2.29 12.916 4.158 20.224 4.822 1.293.128 1.88.227 1.654.283-.316.085-.331.1-.076.113.166.015 1.188.085 2.256.17 5.503.382 17.291.156 16.96-.34-.045-.07-.03-.098.06-.056.076.043.346.028.587-.042.421-.113.421-.113-.165-.142-.361-.014.406-.184 1.88-.424 4.585-.735 8.36-1.626 11.457-2.701 1.774-.623 5.217-2.037 5.458-2.263.075-.07-11.668-.127-30.824-.113l-30.974.014zm-.987 20.996h-.202a.4.4 0 0 0-.132.035l-.088.018-.052.008q-.45.044-.906.053-.457.018-.914.018-.096 0-.246-.009-.14 0-.272-.035a.7.7 0 0 1-.229-.123q-.097-.08-.097-.229 0-.114.053-.228a.3.3 0 0 1 .15-.159q.087-.008.307-.017l.457-.018q.247-.017.466-.026.22-.017.308-.035h.14q.088-.01.176-.026a1 1 0 0 0 .167-.062.3.3 0 0 0 .123-.097q.106-.22.106-.466v-.975q0-.027.008-.123.017-.097.027-.211.017-.114.035-.22.018-.105.017-.132.045-.913.053-1.837.009-.922.009-1.837 0-.387-.009-.755a31 31 0 0 1-.009-.739v-.43q.01-.308.01-.633v-.624q.008-.3.008-.413a.9.9 0 0 0-.123-.29 1 1 0 0 0-.193-.238 2 2 0 0 0-.159-.017 2 2 0 0 0-.228-.026 3 3 0 0 0-.378-.036 1 1 0 0 0-.088.018 2 2 0 0 0-.14.026 1 1 0 0 0-.141.027l-.088.008a2 2 0 0 1-.22.01h-.677q-.158 0-.228-.01a1.4 1.4 0 0 1-.29.08.65.65 0 0 0-.299.114q0 .017-.053.07l-.07.07-.193.22q-.115.132-.229.273a6 6 0 0 1-.21.246l-.097.114a1 1 0 0 0-.124.22 3 3 0 0 1-.123.263 1 1 0 0 1-.167.22.32.32 0 0 1-.237.097q-.105 0-.15-.053a.5.5 0 0 1-.07-.14v-.08a1 1 0 0 0-.008-.123v-.422a1 1 0 0 0 .008-.105v-.062q.009-.026.036-.131A12 12 0 0 0 .483 90a.7.7 0 0 1 .053-.132q0-.027.018-.114l.035-.185a7 7 0 0 0 .07-.299q0-.017.027-.096a3 3 0 0 0 .07-.176l.061-.176a.4.4 0 0 0 .036-.097 3 3 0 0 0 .052-.158q.036-.096.08-.176a.5.5 0 0 1 .122-.132.25.25 0 0 1 .167-.061q.15 0 .238.08.096.078.176.175.078.096.158.202a.4.4 0 0 0 .193.132q.184 0 .387-.009t.404-.009q.378 0 .747.018.37.018.73.079l.035.017a.4.4 0 0 1 .07.027l.08.017q.043.01.052.01h.281q.229 0 .413-.045.195-.044.43-.044h.238q.07 0 .123.01.053 0 .07.008.035 0 .141.017.114.009.246.027l.238.017q.114.01.149.01a1 1 0 0 1 .167-.045q.105-.017.272-.026.176-.009.44-.009.263-.009.66-.009l1.59.018a.6.6 0 0 0 .308-.097q.157-.106.316-.237l.308-.273q.158-.131.307-.184h.106q.255 0 .36.272l.035.396q.027.281.053.598a46 46 0 0 0 .132 1.054q.009.045.017.106a.7.7 0 0 1 .035.158v.132q0 .228-.017.413l-.044.422a.2.2 0 0 1-.088.096.2.2 0 0 1-.088.018q-.026 0-.053-.026a.1.1 0 0 1-.043-.027.7.7 0 0 1-.229-.175 2 2 0 0 1-.158-.247 4 4 0 0 1-.114-.272 5 5 0 0 0-.106-.273 1.3 1.3 0 0 0-.492-.606 4.3 4.3 0 0 0-.694-.387 1.1 1.1 0 0 0-.449-.096q-.219 0-.474-.036a1 1 0 0 1-.132-.035.5.5 0 0 0-.14-.044h-.845a1 1 0 0 0-.202.035q-.131.027-.14.044a1 1 0 0 1-.062.07.6.6 0 0 0-.079.124q-.035.06-.079.167a1 1 0 0 0-.044.105 1 1 0 0 0-.018.097l-.017.132q0 .07-.009.14a1 1 0 0 1-.017.088q0 .14.008.484a29 29 0 0 1 0 1.485q-.008.343-.008.466 0 .448-.07.879a6 6 0 0 0-.062.87q0 .483.026.967.035.474.035.975 0 .607-.035 1.222-.027.615-.026 1.23 0 .185.079.29.087.105.22.159.13.052.29.07.166.018.316.026.07.009.22.018l.861.044a.46.46 0 0 1 .246.193.5.5 0 0 1 .088.29.43.43 0 0 1-.114.317q-.114.105-.29.219h-.018q-.325 0-.606-.052a26 26 0 0 0-.58-.088 14 14 0 0 0-1.899-.132m6.847.105q0-.034-.053-.096a.4.4 0 0 1-.053-.115v-.043a.6.6 0 0 1 .08-.106q.06-.07.131-.141l.14-.14q.072-.061.098-.088.017-.017.114-.035a.7.7 0 0 1 .15-.027h.623a.4.4 0 0 0 .07-.008 1 1 0 0 1 .097-.027l.132-.053a.24.24 0 0 0 .14-.193 1.4 1.4 0 0 0 .027-.263v-.141a9 9 0 0 0-.018-.58 19 19 0 0 1-.008-.59v-.06q0-.027.008-.097l.018-.15a3 3 0 0 1 .062-.255v-3.832a.56.56 0 0 0-.062-.28.4.4 0 0 0-.158-.16.6.6 0 0 0-.229-.078 2 2 0 0 0-.263-.018h-.36q-.247 0-.414-.061-.167-.06-.167-.3v-.14q.008-.06.044-.167.422.018.826-.026.405-.044.818-.044h.228q.036.01.14.017l.23.018.228.018q.105.008.15.017h4.13q.264 0 .378.14.114.133.167.335v1.02q0 .052-.017.193a9 9 0 0 1-.044.29q-.018.15-.044.299-.017.14-.027.202a1 1 0 0 1-.061.079q-.045.044-.062.044 0 .017-.017.017h-.035q-.027 0-.027-.017a.8.8 0 0 1-.228-.237 2 2 0 0 1-.132-.29 6 6 0 0 1-.097-.3q-.044-.149-.132-.28a.5.5 0 0 0-.114-.115l-.097-.096-.079-.097a2 2 0 0 0-.123-.167 2 2 0 0 0-.123-.176 1 1 0 0 0-.07-.097q-.035-.079-.08-.079l-.06-.009-.106-.017a1 1 0 0 0-.106-.026q-.044-.009-.044-.018a.5.5 0 0 1-.096-.018l-.159-.035-.149-.035-.088-.035h-.044a.3.3 0 0 0-.096.026.4.4 0 0 1-.088.018h-.027a1 1 0 0 0-.15-.018 3 3 0 0 0-.254-.009 4 4 0 0 0-.264-.008l-.14-.01h-.027a.52.52 0 0 0-.44.22q-.06.097-.113.22l-.088.229-.035.316q-.018.22-.044.466l-.036.466a5 5 0 0 0-.017.307v.115q0 .044.009.15l.017.228.018.228q.018.105.026.14.062.08.14.159.089.08.185.105h.484q.299 0 .518-.008.229-.01.545-.053l.027-.061a1 1 0 0 1 .044-.088q.026-.044.044-.08a2 2 0 0 0 .114-.22l.105-.237q.053-.123.088-.21a1 1 0 0 1 .053-.097.6.6 0 0 0 .035-.15q.018-.123.035-.14a.34.34 0 0 1 .185-.106q.114-.026.228-.026.123 0 .15.097a.5.5 0 0 1 .035.202v.325a.7.7 0 0 1-.018.158.5.5 0 0 1-.061.14 5 5 0 0 0-.018.264 93 93 0 0 0-.044 1.02v.756a.3.3 0 0 0-.017.079l-.018.14a1 1 0 0 1-.026.238 1 1 0 0 1-.176.105.4.4 0 0 1-.176.035.2.2 0 0 1-.132-.052.8.8 0 0 1-.114-.15 1 1 0 0 1-.088-.175.8.8 0 0 1-.044-.176 1 1 0 0 1-.026-.115 27 27 0 0 1-.044-.553.2.2 0 0 0-.097-.062l-.123-.07a1.08 1.08 0 0 0-.791-.14h-.097a1 1 0 0 0-.149-.01h-.158a1 1 0 0 0-.123-.008l-.088.009h-.114a.5.5 0 0 0-.097.008h-.053l-.123.141v.299q0 .519-.035 1.002-.035.474-.035.993 0 .264.044.387.045.123.14.175a.8.8 0 0 0 .247.08q.15.026.369.087.017 0 .061.027.044.026.062.052h1.335l.08-.008a1 1 0 0 1 .132-.027q.07-.017.123-.026a.4.4 0 0 1 .079-.018h.589a.2.2 0 0 0 .061-.026l.088-.07q.052-.044.088-.08.035-.035.044-.035a.3.3 0 0 1 .097-.026.4.4 0 0 1 .07-.009.2.2 0 0 0 .053-.026.3.3 0 0 0 .052-.08q.098-.14.141-.29.044-.148.114-.298a.5.5 0 0 0 .088-.105 1 1 0 0 0 .062-.115.2.2 0 0 0 .052-.026l.088-.07.08-.08a.4.4 0 0 0 .043-.061.4.4 0 0 1 .035-.07l.07-.106.106-.176q0-.008.027-.035a.1.1 0 0 0 .035-.026q0-.018.009-.018h.017q.131 0 .158.106a.8.8 0 0 1 .027.202v.184q0 .045.009.211.008.168.008.36l.027.554v.027a1 1 0 0 1-.044.264q-.044.14-.123.272a.8.8 0 0 1-.194.22.4.4 0 0 1-.228.096 4 4 0 0 0-.229-.017l-.343-.018-.351-.017a1.4 1.4 0 0 1-.237-.027h-.317a1 1 0 0 1-.202.035l-.343.018-.342.018-.194.008h-3.33a.9.9 0 0 1-.422.044q0 .018-.062.018a1 1 0 0 1-.114-.009l-.07-.009a.6.6 0 0 1-.141.062.6.6 0 0 1-.15.035q-.044 0-.15-.018a4 4 0 0 1-.21-.044 2 2 0 0 1-.22-.043 1 1 0 0 1-.158-.036m11.619-3.48q0 .122.114.176a.5.5 0 0 0 .211.052h.466q.097 0 .193.01.098.008.194.008.228 0 .395-.07.167-.08.167-.343v-.15a4.5 4.5 0 0 0-.237-.8q-.159-.404-.299-.782a1 1 0 0 0-.053-.131.5.5 0 0 0-.07-.141.5.5 0 0 0-.097-.114.18.18 0 0 0-.114-.044.22.22 0 0 0-.184.097q-.062.096-.106.228a4 4 0 0 0-.062.272 1 1 0 0 1-.061.211l-.097.282-.131.43q-.07.22-.141.422-.061.202-.088.282zm-2.048 3.436h-.044a1 1 0 0 0-.088.018q-.07.01-.158.026l-.255.027h-.052a.11.11 0 0 1-.088-.044.3.3 0 0 1-.053-.097.4.4 0 0 1-.018-.114l-.009-.079v-.027q0-.157.106-.211l.22-.096a.4.4 0 0 0 .088-.027q.07-.034.149-.07l.158-.061a.4.4 0 0 0 .088-.053l.053-.044.097-.097q.052-.052.096-.105l.088-.088.026-.044q.036-.053.036-.08 0-.016.017-.105a.3.3 0 0 1 .044-.105q.238-.475.475-.958.237-.492.448-.984a.5.5 0 0 0 .07-.15 4 4 0 0 0 .07-.184l.044-.106.07-.193q.036-.105.062-.194a.5.5 0 0 0 .035-.105 2 2 0 0 1 .053-.123 4 4 0 0 0 .106-.211q.06-.114.105-.22.053-.105.07-.132.07-.158.132-.28.07-.133.132-.308.036-.07.088-.159.062-.088.114-.184.053-.105.088-.203a.45.45 0 0 0 .044-.184v-.123a.4.4 0 0 0-.026-.114l-.018-.097q0-.062.07-.158a.7.7 0 0 1 .106-.123q.017-.01.08-.035.07-.026.14-.062l.193-.097.185-.184q.07-.07.123-.132.06-.071.088-.097a.4.4 0 0 0 .035-.053.5.5 0 0 1 .061-.096.4.4 0 0 1 .08-.088q.043-.044.096-.035.088.026.15.158.069.132.114.29.052.15.088.299.035.14.061.193l.027.123q.026.08.043.158a3 3 0 0 1 .062.211q.01.027.026.123.018.097.035.211a5 5 0 0 1 .062.317q.009.026.044.167.045.14.097.325l.105.37q.053.174.088.28.07.238.176.475.105.228.158.466.044.202.053.325.016.114.088.281l.035.08q.035.052.07.122a1.2 1.2 0 0 1 .097.211q0 .018.008.062t.018.105a1 1 0 0 1 .026.106q.009.045.018.061 0 .01.018.062.017.044.044.105.026.052.044.106.026.044.035.044.044.228.114.492t.22.466q.07.105.255.175l.386.141q.202.07.352.158t.15.229a.34.34 0 0 1-.08.237.46.46 0 0 1-.184.123.8.8 0 0 1-.255.053 4 4 0 0 1-.264.009h-.36q-.141 0-.492-.009l-.756-.018q-.396-.017-.756-.026a11 11 0 0 0-.492-.018q-.097-.034-.115-.079a.5.5 0 0 1-.017-.149v-.062q0-.017.009-.035a.4.4 0 0 1 .22-.22 1.7 1.7 0 0 1 .29-.096q.157-.036.307-.08a.47.47 0 0 0 .246-.21l.018-.062-.018-.061a2 2 0 0 0-.044-.22 5 5 0 0 0-.062-.281 4 4 0 0 0-.087-.378.4.4 0 0 1-.053-.088l-.08-.158a2 2 0 0 0-.078-.167 1 1 0 0 0-.062-.132.38.38 0 0 0-.272-.176 1.6 1.6 0 0 0-.334-.035h-.176q-.316 0-.598.044-.272.045-.58.044a1 1 0 0 1-.123-.009 1 1 0 0 0-.123-.009q-.06.062-.061.097-.018.01-.044.07l-.044.123a1 1 0 0 1-.044.123.4.4 0 0 0-.018.062q0 .018-.061.105a.4.4 0 0 1-.08.106q-.104.22-.123.457-.017.228-.017.474 0 .142.088.211a.7.7 0 0 0 .22.097q.131.035.28.062.15.017.282.061a.5.5 0 0 1 .22.114q.087.08.088.229 0 .29-.273.36-.034 0-.132-.009l-.184-.017-.185-.018a1 1 0 0 1-.123-.017h-.87q-.026 0-.14-.009l-.255-.018a7 7 0 0 0-.255-.026 1 1 0 0 0-.14-.018zm8.947.044a1 1 0 0 0-.105.018 1 1 0 0 1-.088.026h-.035q-.114 0-.229-.008a.7.7 0 0 1-.193-.044.34.34 0 0 1-.132-.106.3.3 0 0 1-.053-.193v-.132q.01-.088.211-.123.211-.044.466-.053.255-.017.484-.026.228-.018.272-.07a2 2 0 0 1 .035-.141.1.1 0 0 0 .009-.044q0-.035.009-.106a2 2 0 0 0 .026-.158 2 2 0 0 0 .035-.255q0-.07.01-.29a109 109 0 0 0 .043-1.353v-.158a4 4 0 0 0 0-.519v-.176l.044-.114.009-.176q.01-.176.017-.413.017-.238.027-.483a6 6 0 0 0 .017-.405v-1.221a.5.5 0 0 0-.017-.106l-.018-.14a1 1 0 0 0-.026-.132l-.009-.08a.29.29 0 0 0-.176-.184 1 1 0 0 0-.299-.088 2.3 2.3 0 0 0-.36-.026 3 3 0 0 1-.343-.035.8.8 0 0 1-.263-.088q-.097-.07-.097-.211 0-.08.053-.14a.6.6 0 0 1 .123-.124.5.5 0 0 1 .15-.079.4.4 0 0 1 .148-.035q.123 0 .3.035.175.036.272.018.026 0 .105-.01a16 16 0 0 1 .457-.043q.045 0 .202.009l.334.017q.185.009.343.027.159.008.202.017h.185a.3.3 0 0 1 .079-.017 1 1 0 0 1 .123-.027q.07-.008.123-.017l.07-.009h.44l.061-.009.106-.017q.06-.009.105-.018l.062-.009h.061a.1.1 0 0 1 .035-.008q.105 0 .212.008.105.008.193.044.087.027.14.097a.28.28 0 0 1 .062.193.3.3 0 0 1-.018.08.2.2 0 0 0-.017.06q-.07.045-.22.133a1 1 0 0 1-.246.096q-.035 0-.158.018a4 4 0 0 0-.246.026 3 3 0 0 0-.246.027l-.141.008a.2.2 0 0 0-.123.062.24.24 0 0 0-.062.114 6 6 0 0 0-.105.782q-.018.387-.018.791v1.126l-.017.105a4 4 0 0 1-.027.202 2 2 0 0 1-.026.202l-.009.123v1.846q0 .027-.008.114l-.036.36-.008.097v.124q0 .017.026.096a.4.4 0 0 1 .026.088.2.2 0 0 1-.026.062q-.027.034-.026.061a.2.2 0 0 0-.01.053.1.1 0 0 0-.008.044v.035q0 .167.097.316.105.141.263.141h.053q.255-.044.527-.08.282-.043.537-.043h1.485q.035 0 .114-.009l.308-.035a.3.3 0 0 0 .07-.026l.07-.053.115-.115q.07-.07.123-.131.06-.062.088-.097 0-.008.017-.044l.035-.08.035-.078a.2.2 0 0 1 .027-.044q0-.01.026-.026l.07-.053.062-.044a.2.2 0 0 1 .044-.018l.044-.044a.4.4 0 0 0 .07-.096.5.5 0 0 0 .053-.115q.035-.035.088-.105l.123-.158a7 7 0 0 0 .202-.264l.044-.053a.3.3 0 0 1 .088-.008q.14 0 .22.114.078.105.114.255.035.15.035.307.009.15.009.246v.229a.5.5 0 0 1-.009.105v.044a.5.5 0 0 1-.026.097.4.4 0 0 0-.027.088 4 4 0 0 0-.017.351.6.6 0 0 1-.044.247.34.34 0 0 1-.14.175.9.9 0 0 1-.326.123q-.08.009-.29.009-.21.009-.457.009h-1.644q-.228 0-.404-.009a.8.8 0 0 1-.184-.009q-.045 0-.176-.008-.123 0-.282-.009a5 5 0 0 1-.57-.035l-.097-.018-.097-.018q-.045-.008-.053-.017h-.141q-.043.01-.175.017a35 35 0 0 1-.739.044h-.588q-.018 0-.124.018a1 1 0 0 1-.105.026.3.3 0 0 1-.15.035 1 1 0 0 1-.122.009 1 1 0 0 1-.106-.017 3 3 0 0 1-.176-.027l-.167-.035zm9.3-6.96a1 1 0 0 0-.071-.264.44.44 0 0 0-.114-.167.7.7 0 0 0-.176-.123l-.264-.132a.8.8 0 0 0-.202-.062.5.5 0 0 1-.123-.044.4.4 0 0 1-.08-.166 1 1 0 0 1-.026-.168v-.07q.01-.06.044-.088a1 1 0 0 1 .097-.026 1 1 0 0 0 .123-.035l.194-.018a2 2 0 0 1 .519.017q.157.019.412.062h.651q.15 0 .29-.008l.28-.018q.142-.01.309-.035a.4.4 0 0 0 .105-.027.5.5 0 0 1 .097-.026h.061q.202 0 .37.07.175.07.175.29 0 .15-.105.229-.106.08-.255.14-.14.061-.29.123a.5.5 0 0 0-.22.15.7.7 0 0 0-.14.237 2 2 0 0 0-.088.29q-.027.15-.036.3-.009.149-.009.263 0 .14.036.228a.47.47 0 0 1 .035.29q0 .044-.026.062 0 .018-.01.097l-.017.175q0 .089-.009.167a1 1 0 0 0-.009.106v.773a.6.6 0 0 1-.035.15l-.035.14v.185q0 .017.009.088.017.07.026.15a2 2 0 0 1 .035.237q.01.043.01.158l.017.228q.009.115.009.22.009.105.009.15.008.07.035.184.026.105.052.22l.07.22q.035.105.071.166.035.088.123.22.097.132.211.264.114.123.228.22a.6.6 0 0 0 .229.122q.017 0 .08.036a.3.3 0 0 0 .105.026q.06 0 .061.009.097.008.176.044.079.026.15.061.07.026.149.053a.6.6 0 0 0 .175.026h.123a.3.3 0 0 1 .062-.035l.105-.053.106-.044a.4.4 0 0 1 .062-.017h.14l.185-.053q.07-.017.15-.026l.122-.027a.96.96 0 0 0 .422-.29q.193-.22.308-.395l.026-.08q.026-.06.044-.122.026-.07.044-.132a.4.4 0 0 0 .018-.08 3 3 0 0 0 .158-.57q.052-.3.07-.607.017-.316.026-.624.01-.307.035-.597 0-.01.01-.053a1 1 0 0 0 .008-.106q.009-.06.018-.105l.008-.07v-.765l-.026-.255a14 14 0 0 0-.044-.396l-.035-.395a7 7 0 0 1-.009-.272l-.07-.168a.6.6 0 0 0-.088-.166.5.5 0 0 0-.026-.088q-.018-.053-.035-.053-.062-.062-.115-.062a.3.3 0 0 0-.079.01.2.2 0 0 1-.061.008.2.2 0 0 1-.08-.018 3 3 0 0 1-.404-.105.7.7 0 0 1-.325-.255l-.026-.061v-.08q0-.017.008-.035l.018-.044a.55.55 0 0 1 .343-.21 2 2 0 0 1 .422-.045q.157 0 .316.018.158.009.308.009.07 0 .202-.027.141-.026.237-.026h.545q.079 0 .185-.009a3 3 0 0 1 .228-.009q.176 0 .343.027a.7.7 0 0 1 .281.105q.018.027.018.097l.008.088a.4.4 0 0 1-.087.272.55.55 0 0 1-.211.14q-.123.045-.273.071a1.3 1.3 0 0 0-.263.08.5.5 0 0 0-.229.193.5.5 0 0 0-.088.29q0 .14.026.246.036.105.036.246v.15a.4.4 0 0 1-.035.114 1 1 0 0 0-.027.096v.73a7 7 0 0 0-.017.334q-.009.237-.027.51l-.017.5q-.009.238-.018.335a.7.7 0 0 0-.062.175q-.017.08-.026.167l-.017.158a.6.6 0 0 1-.027.167q-.009.027-.026.097l-.044.14-.035.15a.4.4 0 0 0-.018.08q-.017.016-.026.087l-.018.132a.5.5 0 0 1-.017.123q-.009.053-.018.053 0 .025-.061.123a1.5 1.5 0 0 0-.132.22q-.045.096-.106.21a4 4 0 0 1-.175.335q-.159.298-.414.536-.246.237-.527.483l-.105.079-.15.097-.132.096-.07.044h-.255q-.166.018-.299.036a4 4 0 0 1-.246.043 3 3 0 0 1-.255.044 2 2 0 0 1-.298.018h-.528a.8.8 0 0 0-.202-.062l-.21-.035a1 1 0 0 1-.194-.035.6.6 0 0 1-.185-.07 1 1 0 0 1-.114-.062l-.202-.14a5 5 0 0 0-.211-.15 1.4 1.4 0 0 1-.158-.132l-.062-.043a1 1 0 0 0-.15-.194 4 4 0 0 0-.158-.167 5 5 0 0 1-.158-.167 1 1 0 0 1-.123-.22 3.8 3.8 0 0 1-.264-.905 7 7 0 0 1-.07-.967 9 9 0 0 1-.017-.29v-3.155q.008-.202.017-.308m13.64-.036a.2.2 0 0 0 .096-.123.6.6 0 0 0 .027-.175q0-.186-.14-.255a1 1 0 0 0-.3-.115 10 10 0 0 1-.298-.088q-.132-.052-.132-.184 0-.045.035-.07a.2.2 0 0 1 .088-.053 1 1 0 0 1 .105-.044q.062-.018.106-.035a1.3 1.3 0 0 1 .264-.053h1.546a.9.9 0 0 1 .308-.08 2.6 2.6 0 0 1 .51-.008q.106 0 .175.026.08.027.123.097.044.07.044.202 0 .185-.105.281a.65.65 0 0 1-.246.15q-.15.045-.316.07-.159.026-.282.062-.395.14-.703.378-.3.228-.571.562-.027.027-.097.114l-.158.176-.15.185q-.07.08-.096.105l-.08.106a.5.5 0 0 1-.105.105q-.114.097-.22.246-.105.15-.175.29-.035.062-.062.115a.5.5 0 0 0-.017.14q0 .184.096.387.097.202.185.378.035.053.088.158l.105.194q.053.096.088.175l.053.097q.009.018.061.105.062.08.132.185.07.096.123.184l.08.115.21.395q.105.246.22.492.114.238.246.466.132.22.299.422.166.203.387.387.078.06.202.105.123.036.237.079.123.045.202.124.088.07.088.21 0 .177-.114.22a.55.55 0 0 1-.246.053q-.079 0-.167-.009a1 1 0 0 0-.14-.009.6.6 0 0 1-.176.027l-.308.035a6 6 0 0 1-.475.035h-.044l-.061-.009a1 1 0 0 1-.114-.026l-.115-.035q-.052-.009-.061-.027-.044 0-.185-.008l-.29-.018q-.15 0-.281-.009a3 3 0 0 0-.167-.009q-.035 0-.15-.017a1 1 0 0 1-.14-.044v-.062q0-.14.061-.193a1 1 0 0 1 .141-.088.6.6 0 0 0 .14-.105q.07-.062.07-.22a1.2 1.2 0 0 0-.052-.281 3 3 0 0 0-.15-.422 7 7 0 0 0-.201-.484 4 4 0 0 0-.229-.448 2.5 2.5 0 0 0-.22-.334q-.105-.132-.184-.132-.15 0-.246.088a.7.7 0 0 0-.167.202 1.6 1.6 0 0 0-.123.246q-.053.133-.106.229-.026.045-.132.21-.105.16-.237.353-.123.192-.237.36a5 5 0 0 1-.132.202q-.017.009-.044.061a.2.2 0 0 1-.035.062v.061q0 .124.105.176.106.053.246.097.141.035.282.097.15.052.228.175 0 .115-.061.159a.4.4 0 0 1-.132.052h-2.461q-.07 0-.088-.052l-.009-.088v-.071a1 1 0 0 1 .237-.202 3.3 3.3 0 0 1 .58-.255q.15-.06.282-.149l.14-.132.22-.22q.123-.114.229-.22.114-.105.158-.149.228-.263.387-.545.166-.29.325-.588a.5.5 0 0 1 .079-.08.5.5 0 0 0 .07-.079 5 5 0 0 0 .264-.395v-.044a1 1 0 0 0 .009-.114 1 1 0 0 0 .009-.115l.008-.088-.008-.079a1 1 0 0 0-.01-.114 1 1 0 0 0-.008-.114v-.08a1.1 1.1 0 0 1-.37-.342 3 3 0 0 1-.228-.457.6.6 0 0 0-.052-.097q-.046-.07-.088-.14-.045-.08-.088-.141a1 1 0 0 0-.044-.08q-.036-.07-.106-.219-.06-.15-.105-.21-.018-.01-.035-.053l-.035-.106-.036-.105a.3.3 0 0 0-.017-.07l-.018-.018q-.01-.01-.026-.01a.1.1 0 0 1-.018-.025l-.061-.053a2 2 0 0 1-.282-.457 1.7 1.7 0 0 0-.263-.44 1.7 1.7 0 0 0-.237-.228 3 3 0 0 0-.255-.194 10 10 0 0 0-.255-.175 2 2 0 0 1-.255-.203.2.2 0 0 1-.088-.105 1 1 0 0 1-.009-.14q0-.097.044-.124a.3.3 0 0 1 .14-.026h.036l.035.009.088.017q.052.009.088.018.045.009.061.009h.044q.562 0 1.108-.035.553-.036 1.107-.036.21 0 .308.053.105.044.105.246 0 .176-.07.246a.6.6 0 0 1-.158.097.7.7 0 0 0-.159.088q-.07.053-.07.21 0 .072.053.185.052.105.088.15.026.044.114.22.097.166.202.369a48 48 0 0 1 .334.571q.061.089.106.14a.17.17 0 0 0 .123.053q.106 0 .237-.087.141-.098.36-.264a.8.8 0 0 0 .176-.22 4 4 0 0 0 .176-.316q.08-.167.14-.317.07-.15.115-.21m11.144 6.979a1 1 0 0 0-.105.009h-.132a1 1 0 0 0-.114.008h-.053l-.21.079-1.082-.061h-2.303a1.2 1.2 0 0 0-.44-.079 1 1 0 0 0-.148.009.6.6 0 0 0-.141.052q-.088 0-.299-.008a10 10 0 0 0-.87 0l-.273.008a1 1 0 0 0-.096.009 1 1 0 0 1-.14.009l-.142.018-.079.008a.2.2 0 0 1-.061.009.2.2 0 0 1-.053.009H58.5a1 1 0 0 1-.36-.053q-.115-.044-.203-.281-.035 0-.035-.018-.008-.008 0-.026 0-.07.044-.149a.8.8 0 0 1 .123-.159 1 1 0 0 1 .158-.114.33.33 0 0 1 .168-.053h.834q.018 0 .115-.096.096-.105.158-.159a.2.2 0 0 0 .035-.07.3.3 0 0 0 .026-.088 6 6 0 0 0 .123-1.028q.018-.51.018-1.064v-.193q.009-.157.009-.369l.017-.44q.01-.237.01-.448.008-.21.008-.36a5 5 0 0 0 .009-.211v-.475a36 36 0 0 0-.026-1.388 35 35 0 0 1-.027-1.363v-.061q0-.027.009-.132l.035-.466q.009-.105.009-.132a5 5 0 0 0 .017-.272 122 122 0 0 0 .044-1.116 1 1 0 0 1-.052-.273 4 4 0 0 0-.027-.281 1 1 0 0 0-.07-.264.5.5 0 0 0-.167-.21 4 4 0 0 0-.466-.026l-.272-.019a2 2 0 0 1-.176-.017 10 10 0 0 1-.308-.044 1.6 1.6 0 0 1-.307-.097.7.7 0 0 1-.238-.184.48.48 0 0 1-.087-.3l.035-.017a.1.1 0 0 0 .026-.017q.01-.01.026-.01a1.3 1.3 0 0 1 .378-.157q.168-.044.43-.044h.045a.4.4 0 0 0 .123.079q.44.034.879.053.44.008.887.008.37 0 .721-.008.352-.01.695-.01h1.942q.035 0 .114-.008a2 2 0 0 1 .167-.009l.185-.017q.087-.01.132-.01h.114q.026 0 .123.01l.21.017q.115 0 .212.009.105.009.132.009h1.045q.07.008.203.017l.272.018q.141.01.246.026.105.009.115.018.008 0 .07.026a1 1 0 0 1 .132.07q.078.035.15.08.078.043.122.079.089.052.14.255.063.193.097.43.036.238.053.466.026.23.044.352 0 .044.009.158.017.105.026.228l.018.238q.009.114.009.158v.483a.22.22 0 0 1-.115.106.6.6 0 0 1-.15.017h-.06a.5.5 0 0 1-.212-.246l-.052-.14a.5.5 0 0 0-.07-.15q0-.008-.036-.035a.7.7 0 0 0-.132-.132l-.043-.044a5 5 0 0 1-.247-.395 2.3 2.3 0 0 0-.272-.422.3.3 0 0 0-.062-.062.3.3 0 0 1-.061-.079q-.008-.017-.062-.026a.2.2 0 0 1-.07-.035.6.6 0 0 1-.167-.158 2 2 0 0 0-.132-.167 1.3 1.3 0 0 0-.14-.167.6.6 0 0 0-.22-.132q-.07 0-.273-.009a8 8 0 0 0-.413-.026q-.22-.017-.422-.027-.193-.017-.272-.026h-.457l-.08-.009a1 1 0 0 0-.14-.026 2 2 0 0 0-.15-.027l-.087-.017h-.255q-.035 0-.158.017a5 5 0 0 0-.255.027 3 3 0 0 0-.255.026l-.14.009h-.52a.16.16 0 0 0-.078.026q-.044.018-.044.035v1.09a2.3 2.3 0 0 1-.08.536 2 2 0 0 0-.07.519q0 .395.036.8.044.395.044.808 0 .281-.044.572a5 5 0 0 0-.036.597v.062q.027.026.07.079.044.044.08.044h.448l.08-.009a1 1 0 0 1 .131-.026q.07-.017.123-.027l.07-.017h.783q.06 0 .22-.009.166-.009.342-.009l.343-.017q.158-.01.22-.01a.67.67 0 0 0 .193-.333q.061-.229.123-.378a1 1 0 0 0 .018-.123l.035-.22.035-.21a.4.4 0 0 1 .035-.133q0-.008.018-.044a1 1 0 0 0 .097-.158l.035-.044q.035-.114.043-.246a1 1 0 0 1 .044-.237.4.4 0 0 1 .115-.185q.078-.07.254-.07.194 0 .255.088.062.087.062.29a.5.5 0 0 1-.009.105 3 3 0 0 0-.044.167.3.3 0 0 0-.009.08q0 .07.01.131l.008.08a3 3 0 0 0-.018.22q-.008.166-.026.386t-.035.475l-.035.474q-.018.22-.035.387a3 3 0 0 1-.018.228l.009.167q.009.14.009.29 0 .07-.018.159a1 1 0 0 1-.026.105l-.018.044a1 1 0 0 1-.026.105 1 1 0 0 1-.027.106.4.4 0 0 0-.008.061q0 .027.008.123l.018.211a3 3 0 0 1 .035.317v.105a1 1 0 0 1 .009.132v.123a1 1 0 0 1 .009.097 1 1 0 0 1-.159.545q-.008.044-.088.096a.3.3 0 0 1-.087.044.3.3 0 0 1-.097-.044.4.4 0 0 1-.105-.096.66.66 0 0 1-.212-.343 3 3 0 0 1-.07-.475 8 8 0 0 1-.017-.536q0-.272-.035-.5a1.1 1.1 0 0 0-.115-.396.38.38 0 0 0-.281-.194 1 1 0 0 1-.22.018h-.677a.8.8 0 0 1-.21-.018q-.045 0-.141-.008a2 2 0 0 0-.202-.01q-.098-.007-.194-.017l-.123-.008q-.008-.027-.07-.062a.2.2 0 0 0-.079-.035h-.088a.9.9 0 0 0-.44.114.46.46 0 0 0-.245.343l-.044.246q-.026.175-.062.387-.026.21-.062.413-.026.193-.035.29v.114q0 .07.01.228a49 49 0 0 1 .034.686q.018.159.018.22.045.07.053.105t.008.08q0 .342-.035.667a6 6 0 0 0-.035.686v.15q.009.114.009.157.009.018.044.062.035.035.07.08l.088.07q.044.035.062.043.008.017.079.027l.175.017a1 1 0 0 1 .185.018l.15.017q.105 0 .36.01l1.107.034h.37q.105.044.21.062.115.018.22.017h.642l.061-.008a1 1 0 0 1 .114-.027q.07-.017.123-.026a.4.4 0 0 1 .062-.018h1.67a.5.5 0 0 0 .184-.096q.09-.08.168-.167a2 2 0 0 0 .246-.378.5.5 0 0 0 .07-.123q.052-.097.097-.202l.149-.326.08-.105q.06-.08.06-.097a1 1 0 0 0 .062-.193l.044-.053.088-.088a1.1 1.1 0 0 0 .22-.316 1 1 0 0 0 .052-.123l.036-.08a.5.5 0 0 1 .096-.105.5.5 0 0 0 .097-.088.1.1 0 0 1 .044-.026.3.3 0 0 0 .044-.035.2.2 0 0 1 .053-.027.5.5 0 0 1 .105.088l.106.106v.044q0 .105-.036.202a.84.84 0 0 0 0 .413.6.6 0 0 1 .035.211v.07q0 .027-.035.097a.3.3 0 0 0-.026.105v1.029l-.026.272a1.4 1.4 0 0 1-.07.308.8.8 0 0 1-.15.246.33.33 0 0 1-.255.105h-.044a1 1 0 0 0-.088-.017l-.123-.018-.114-.017-.053-.009-.053-.035q-.052-.035-.052-.044h-.097a1.8 1.8 0 0 1-.58.105 5 5 0 0 0-.571.035 1 1 0 0 0-.097.009l-.158.018a3 3 0 0 0-.238.061h-.043a1 1 0 0 1-.3-.044 1 1 0 0 0-.307-.044h-.097a2 2 0 0 0-.167-.008h-.184a2 2 0 0 0-.15-.009"/></svg>